<?xml version="1.0" encoding="utf-8"?>
<!-- Generator: Adobe Illustrator 15.1.0, SVG Export Plug-In . SVG Version: 6.00 Build 0)  -->
<!DOCTYPE svg PUBLIC "-//W3C//DTD SVG 1.1 Tiny//EN" "http://www.w3.org/Graphics/SVG/1.1/DTD/svg11-tiny.dtd">
<svg version="1.1" baseProfile="tiny" id="Layer_1" xmlns="http://www.w3.org/2000/svg" xmlns:xlink="http://www.w3.org/1999/xlink"
	 x="0px" y="0px" width="120px" height="120px" viewBox="0 0 120 120" xml:space="preserve">
<line fill="none" stroke="#FFFFFF" stroke-width="2" stroke-linecap="round" stroke-linejoin="round" stroke-miterlimit="10" x1="31.502" y1="37.369" x2="89.663" y2="31.086"/>
<line fill="none" stroke="#FFFFFF" stroke-width="2" stroke-linecap="round" stroke-linejoin="round" stroke-miterlimit="10" x1="89.664" y1="31.085" x2="99.928" y2="87.931"/>
<line fill="none" stroke="#FFFFFF" stroke-width="2" stroke-linecap="round" stroke-linejoin="round" stroke-miterlimit="10" x1="31.502" y1="37.369" x2="21.238" y2="87.931"/>
<g>
	<path fill="none" stroke="#FFFFFF" stroke-width="4" stroke-linecap="round" stroke-linejoin="round" stroke-miterlimit="10" d="
		M51.643,78.584c5.789,4.094,13.786,2.722,17.88-3.068"/>
	<path fill="none" stroke="#FFFFFF" stroke-width="2" stroke-linecap="round" stroke-linejoin="round" stroke-miterlimit="10" d="
		M55.214,46.84c0,0.783-0.635,1.418-1.418,1.418c-0.784,0-1.418-0.635-1.418-1.418v-2.173c0-0.783,0.634-1.418,1.418-1.418
		c0.783,0,1.418,0.635,1.418,1.418V46.84z"/>
	<path fill="none" stroke="#FFFFFF" stroke-width="2" stroke-linecap="round" stroke-linejoin="round" stroke-miterlimit="10" d="
		M55.214,54.647c0,0.783-0.635,1.418-1.418,1.418c-0.784,0-1.418-0.635-1.418-1.418v-2.173c0-0.783,0.634-1.418,1.418-1.418
		c0.783,0,1.418,0.635,1.418,1.418V54.647z"/>
	<path fill="none" stroke="#FFFFFF" stroke-width="2" stroke-linecap="round" stroke-linejoin="round" stroke-miterlimit="10" d="
		M55.214,62.456c0,0.782-0.635,1.418-1.418,1.418c-0.784,0-1.418-0.636-1.418-1.418v-2.173c0-0.783,0.634-1.418,1.418-1.418
		c0.783,0,1.418,0.635,1.418,1.418V62.456z"/>
	<path fill="none" stroke="#FFFFFF" stroke-width="2" stroke-linecap="round" stroke-linejoin="round" stroke-miterlimit="10" d="
		M55.214,70.264c0,0.783-0.635,1.418-1.418,1.418c-0.784,0-1.418-0.635-1.418-1.418v-2.173c0-0.783,0.634-1.418,1.418-1.418
		c0.783,0,1.418,0.635,1.418,1.418V70.264z"/>
	
		<line fill="none" stroke="#FFFFFF" stroke-width="2" stroke-linecap="round" stroke-linejoin="round" stroke-miterlimit="10" x1="53.796" y1="36.594" x2="53.796" y2="43.04"/>
	
		<line fill="none" stroke="#FFFFFF" stroke-width="2" stroke-linecap="round" stroke-linejoin="round" stroke-miterlimit="10" x1="53.796" y1="47.603" x2="53.796" y2="51.056"/>
	
		<line fill="none" stroke="#FFFFFF" stroke-width="2" stroke-linecap="round" stroke-linejoin="round" stroke-miterlimit="10" x1="53.796" y1="55.411" x2="53.796" y2="58.864"/>
	
		<line fill="none" stroke="#FFFFFF" stroke-width="2" stroke-linecap="round" stroke-linejoin="round" stroke-miterlimit="10" x1="53.796" y1="63.219" x2="53.796" y2="66.672"/>
	<path fill="none" stroke="#FFFFFF" stroke-width="2" stroke-linecap="round" stroke-linejoin="round" stroke-miterlimit="10" d="
		M68.789,45.396c0,0.783-0.636,1.418-1.419,1.418s-1.418-0.635-1.418-1.418v-2.173c0-0.783,0.635-1.418,1.418-1.418
		s1.419,0.635,1.419,1.418V45.396z"/>
	<path fill="none" stroke="#FFFFFF" stroke-width="2" stroke-linecap="round" stroke-linejoin="round" stroke-miterlimit="10" d="
		M68.789,53.205c0,0.783-0.636,1.418-1.419,1.418s-1.418-0.635-1.418-1.418v-2.173c0-0.783,0.635-1.418,1.418-1.418
		s1.419,0.635,1.419,1.418V53.205z"/>
	<path fill="none" stroke="#FFFFFF" stroke-width="2" stroke-linecap="round" stroke-linejoin="round" stroke-miterlimit="10" d="
		M68.789,61.013c0,0.783-0.636,1.418-1.419,1.418s-1.418-0.635-1.418-1.418V58.84c0-0.783,0.635-1.418,1.418-1.418
		s1.419,0.635,1.419,1.418V61.013z"/>
	<path fill="none" stroke="#FFFFFF" stroke-width="2" stroke-linecap="round" stroke-linejoin="round" stroke-miterlimit="10" d="
		M68.789,68.82c0,0.783-0.636,1.419-1.419,1.419s-1.418-0.636-1.418-1.419v-2.173c0-0.782,0.635-1.418,1.418-1.418
		s1.419,0.636,1.419,1.418V68.82z"/>
	
		<line fill="none" stroke="#FFFFFF" stroke-width="2" stroke-linecap="round" stroke-linejoin="round" stroke-miterlimit="10" x1="67.37" y1="35.906" x2="67.37" y2="41.301"/>
	
		<line fill="none" stroke="#FFFFFF" stroke-width="2" stroke-linecap="round" stroke-linejoin="round" stroke-miterlimit="10" x1="67.37" y1="46.16" x2="67.37" y2="49.613"/>
	
		<line fill="none" stroke="#FFFFFF" stroke-width="2" stroke-linecap="round" stroke-linejoin="round" stroke-miterlimit="10" x1="67.37" y1="53.968" x2="67.37" y2="57.421"/>
	
		<line fill="none" stroke="#FFFFFF" stroke-width="2" stroke-linecap="round" stroke-linejoin="round" stroke-miterlimit="10" x1="67.37" y1="61.776" x2="67.37" y2="65.229"/>
	
		<polygon fill="none" stroke="#FFFFFF" stroke-width="2" stroke-linecap="round" stroke-linejoin="round" stroke-miterlimit="10" points="
		53.796,76.097 53.796,76.097 53.796,71.682 	"/>
	
		<polygon fill="none" stroke="#FFFFFF" stroke-width="2" stroke-linecap="round" stroke-linejoin="round" stroke-miterlimit="10" points="
		67.37,74.745 67.37,74.745 67.37,66.51 	"/>
	
		<polygon fill="none" stroke="#FFFFFF" stroke-width="2" stroke-linecap="round" stroke-linejoin="round" stroke-miterlimit="10" points="
		67.37,35.401 67.37,35.401 67.37,36.385 67.37,34.417 67.37,34.9 	"/>
	
		<line fill="none" stroke="#FFFFFF" stroke-width="2" stroke-linecap="round" stroke-linejoin="round" stroke-miterlimit="10" x1="15.829" y1="88.914" x2="26.371" y2="88.914"/>
	
		<line fill="none" stroke="#FFFFFF" stroke-width="2" stroke-linecap="round" stroke-linejoin="round" stroke-miterlimit="10" x1="94.795" y1="88.914" x2="105.829" y2="88.914"/>
</g>
</svg>
