<?xml version="1.0" encoding="utf-8"?>
<!-- Generator: Adobe Illustrator 15.1.0, SVG Export Plug-In . SVG Version: 6.00 Build 0)  -->
<!DOCTYPE svg PUBLIC "-//W3C//DTD SVG 1.1 Tiny//EN" "http://www.w3.org/Graphics/SVG/1.1/DTD/svg11-tiny.dtd">
<svg version="1.1" baseProfile="tiny" id="Layer_1" xmlns="http://www.w3.org/2000/svg" xmlns:xlink="http://www.w3.org/1999/xlink"
	 x="0px" y="0px" width="120px" height="120px" viewBox="0 0 120 120" xml:space="preserve">
<g>
	<path fill="none" stroke="#FFFFFF" stroke-width="2" stroke-linecap="round" stroke-linejoin="round" stroke-miterlimit="10" d="
		M87.592,97.5c-1.683-3.123-3.015-6.478-4.96-9.454c-1.863-2.849-4.821-4.586-7.729-6.208c-1.912-1.065-4.725-1.743-6.188-3.363
		c-1.28-1.418-1.731-3.372-1.863-5.229c-0.28-3.956,0.791-7.953,1.866-11.724c0.309-0.176,0.724-0.236,1.061-0.082
		c2.256,1.027,5.534-5.816,6.253-7.166c1.275-2.395,2.141-5.021,2.13-7.757c-0.011-2.697-1.064-4.946-0.705-7.681
		c0.442-3.358,0.063-6.465,3.44-8.109c2.323-1.131,5.297-1.488,7.849-1.157c0.003,0-1.553-1.768-1.916-2.014
		c-1.753-1.188-4.154-0.641-5.765-1.61c-0.935-0.561-0.948-1.998-1.93-2.392c-1.913-0.77-4.177-1.339-6.24-0.904
		c-2.789,0.588-3.213,3.343-4.883,5.195c-4.265,2.257-8.721,6.047-12.422,9.222c-4.337,3.721-8.432,7.845-11.408,12.76
		c-2.846,4.696-3.221,10.542-6.374,14.896c0.441-0.043,0.885-0.087,1.327-0.13c-0.581,1.736-1.024,3.473-1.606,5.209
		c-0.261,0.78-2.521,1.91-3.183,2.479c-1.313,1.125-3.859,3.487-2.863,5.429c0.662,1.288,2.617-0.472,3.369-1.024
		c-1.103,1.344-1.791,2.92-2.402,4.411c-0.28,1.325,0.485,1.279,1.398,1.038c-0.639,1.757-2.221,6.041-0.845,5.933
		c0.663,0.525,2.697-2.548,3.656-3.435c-1.287,1.189-0.598,5.516,0.793,6.308c0.191-0.281,0.211-0.539,0.276-0.872
		c0.186-0.974,1.074-4.146,1.61-4.979c0.849,0.854,2.064-0.783,3.43-1.983c-0.298,0.262,0.579,0.928,0.786,0.977
		c0.537,0.126,1.197-0.604,1.535-0.909c1.336-1.203,2.374-2.895,3.49-4.298c-0.432,0.181-0.44,0.876-0.071,1.166
		c0.37,0.29,0.929,0.216,1.316-0.049c0.388-0.266,0.644-0.68,0.878-1.087c0.236-0.407,0.471-0.829,0.837-1.124
		c1.753,1.021,6.21,2.502,6.643,4.749c1.561,0.797,19.379,10.615,16.506,12.569c-0.22,0.284-0.874,0.568-1.59,0.852
		c-0.151,0.028-0.304,0.055-0.459,0.082"/>
	<path fill="none" stroke="#FFFFFF" stroke-width="2" stroke-linecap="round" stroke-linejoin="round" stroke-miterlimit="10" d="
		M64.829,78.923c-0.711-0.638-1.612-1.182-1.998-1.381c-1.707-0.877-3.349-2.088-5.088-2.866c-0.601-0.269-1.397-0.695-2.13-1.163
		c-0.126-0.081-0.251-0.163-0.372-0.246c-0.05-0.033-0.099-0.067-0.146-0.101c-0.159-0.111-0.312-0.224-0.454-0.335
		c-0.016,0.031-0.036,0.065-0.052,0.098c0.198-0.367,0.374-0.713,0.51-1.019c-0.099,0.911,0.614,0.216,0.728-0.043
		c-0.27,0.563-0.325,0.971-0.173,1.388c0.479-1.458,1.216-2.317,1.967-3.34c0.959,1.935,3.839-0.845,5.242-2.515
		c-1.434,1.728,1.864,8.396,2.513,9.807c0.476,1.036,0.635,2.291,0.422,3.388C65.898,80.073,65.433,79.464,64.829,78.923z"/>
	<path fill="none" stroke="#FFFFFF" stroke-width="2" stroke-linecap="round" stroke-linejoin="round" stroke-miterlimit="10" d="
		M52.21,76.781c0.026-0.039,0.053-0.078,0.078-0.117c-0.015,0.022-0.03,0.045-0.044,0.067C52.232,76.748,52.222,76.765,52.21,76.781
		z"/>
	<path fill="none" stroke="#FFFFFF" stroke-width="2" stroke-linecap="round" stroke-linejoin="round" stroke-miterlimit="10" d="
		M54.282,73.477c0.024-0.042,0.048-0.082,0.07-0.123c-0.011,0.021-0.021,0.04-0.034,0.062
		C54.306,73.436,54.295,73.456,54.282,73.477z"/>
	<path fill="none" stroke="#FFFFFF" stroke-width="2" stroke-linecap="round" stroke-linejoin="round" stroke-miterlimit="10" d="
		M51.941,77.182c-0.024,0.038-0.052,0.077-0.077,0.115c-0.006,0.008-0.011,0.016-0.017,0.024
		C51.878,77.275,51.912,77.228,51.941,77.182z"/>
</g>
</svg>
