<?xml version="1.0" encoding="utf-8"?>
<!-- Generator: Adobe Illustrator 15.1.0, SVG Export Plug-In . SVG Version: 6.00 Build 0)  -->
<!DOCTYPE svg PUBLIC "-//W3C//DTD SVG 1.1 Tiny//EN" "http://www.w3.org/Graphics/SVG/1.1/DTD/svg11-tiny.dtd">
<svg version="1.1" baseProfile="tiny" id="Layer_1" xmlns="http://www.w3.org/2000/svg" xmlns:xlink="http://www.w3.org/1999/xlink"
	 x="0px" y="0px" width="120px" height="120px" viewBox="0 0 120 120" xml:space="preserve">
<line fill="none" stroke="#FFFFFF" stroke-width="2" stroke-linecap="round" stroke-linejoin="round" stroke-miterlimit="10" x1="32.27" y1="92.12" x2="32.27" y2="77.022"/>
<line fill="none" stroke="#FFFFFF" stroke-width="2" stroke-linecap="round" stroke-linejoin="round" stroke-miterlimit="10" x1="39.375" y1="92.12" x2="39.375" y2="77.022"/>
<polygon fill="none" stroke="#FFFFFF" stroke-width="2" stroke-linecap="round" stroke-linejoin="round" stroke-miterlimit="10" points="
	25.165,76.135 45.592,76.135 43.816,43.273 29.606,43.273 "/>
<line fill="none" stroke="#FFFFFF" stroke-width="2" stroke-linecap="round" stroke-linejoin="round" stroke-miterlimit="10" x1="29.605" y1="43.273" x2="22.944" y2="67.253"/>
<line fill="none" stroke="#FFFFFF" stroke-width="2" stroke-linecap="round" stroke-linejoin="round" stroke-miterlimit="10" x1="43.816" y1="43.273" x2="52.697" y2="65.477"/>
<g>
	<path fill="none" stroke="#FFFFFF" stroke-width="2" stroke-linecap="round" stroke-linejoin="round" stroke-miterlimit="10" d="
		M40.919,33.06c0,3.679-3.321,6.661-5.213,6.661c-1.66,0-5.213-2.982-5.213-6.661s2.334-6.661,5.213-6.661
		S40.919,29.38,40.919,33.06z"/>
	<path fill="none" stroke="#FFFFFF" stroke-width="2" stroke-linecap="round" stroke-linejoin="round" stroke-miterlimit="10" d="
		M39.162,28.098c0,0,4.071,7.105,9.77,6.217"/>
	<path fill="none" stroke="#FFFFFF" stroke-width="2" stroke-linecap="round" stroke-linejoin="round" stroke-miterlimit="10" d="
		M32.27,28.098c0,0-4.071,7.105-9.77,6.217"/>
	
		<line fill="none" stroke="#FFFFFF" stroke-width="2" stroke-linecap="round" stroke-linejoin="round" stroke-miterlimit="10" x1="67.327" y1="92.12" x2="67.327" y2="83.239"/>
	
		<line fill="none" stroke="#FFFFFF" stroke-width="2" stroke-linecap="round" stroke-linejoin="round" stroke-miterlimit="10" x1="73.051" y1="92.12" x2="73.051" y2="83.239"/>
	
		<polygon fill="none" stroke="#FFFFFF" stroke-width="2" stroke-linecap="round" stroke-linejoin="round" stroke-miterlimit="10" points="
		61.603,82.352 78.058,82.352 76.627,52.771 65.18,52.771 	"/>
	
		<line fill="none" stroke="#FFFFFF" stroke-width="2" stroke-linecap="round" stroke-linejoin="round" stroke-miterlimit="10" x1="65.181" y1="52.771" x2="52.697" y2="65.477"/>
	
		<line fill="none" stroke="#FFFFFF" stroke-width="2" stroke-linecap="round" stroke-linejoin="round" stroke-miterlimit="10" x1="76.627" y1="52.771" x2="83.781" y2="70.657"/>
	<path fill="none" stroke="#FFFFFF" stroke-width="2" stroke-linecap="round" stroke-linejoin="round" stroke-miterlimit="10" d="
		M74.294,44.544c0,2.963-2.675,5.366-4.198,5.366c-1.338,0-4.2-2.403-4.2-5.366s1.88-5.366,4.2-5.366
		C72.414,39.178,74.294,41.581,74.294,44.544z"/>
	<path fill="none" stroke="#FFFFFF" stroke-width="2" stroke-linecap="round" stroke-linejoin="round" stroke-miterlimit="10" d="
		M72.879,40.547c0,0,3.279,5.724,7.87,5.008"/>
	<path fill="none" stroke="#FFFFFF" stroke-width="2" stroke-linecap="round" stroke-linejoin="round" stroke-miterlimit="10" d="
		M67.327,40.547c0,0-3.279,5.724-7.871,5.008"/>
	
		<line fill="none" stroke="#FFFFFF" stroke-width="2" stroke-linecap="round" stroke-linejoin="round" stroke-miterlimit="10" x1="30.773" y1="93.602" x2="34.326" y2="93.602"/>
	
		<line fill="none" stroke="#FFFFFF" stroke-width="2" stroke-linecap="round" stroke-linejoin="round" stroke-miterlimit="10" x1="37.599" y1="93.602" x2="41.151" y2="93.602"/>
	
		<line fill="none" stroke="#FFFFFF" stroke-width="2" stroke-linecap="round" stroke-linejoin="round" stroke-miterlimit="10" x1="66.438" y1="93.602" x2="68.215" y2="93.602"/>
	
		<line fill="none" stroke="#FFFFFF" stroke-width="2" stroke-linecap="round" stroke-linejoin="round" stroke-miterlimit="10" x1="72.162" y1="93.602" x2="73.938" y2="93.602"/>
	<path fill="none" stroke="#FFFFFF" stroke-width="2" stroke-linecap="round" stroke-linejoin="round" stroke-miterlimit="10" d="
		M94.41,85.17c0.875-0.271,1.146-2.104,0.605-4.095c-0.374-1.376-1.038-2.466-1.701-2.918c0.93-0.237,1.756-0.839,2.245-1.737
		c0.262,0.111,0.538,0.144,0.807,0.074l0.065-0.019c0.838-0.27,1.27-1.44,0.978-2.656c-0.3-1.252-1.254-2.085-2.131-1.86
		c-0.144,0.037-0.276,0.104-0.397,0.189c-0.244-0.237-0.525-0.445-0.844-0.612c-0.354-0.188-0.727-0.308-1.102-0.372
		c-0.007-0.112-0.03-0.222-0.069-0.328c-0.309-0.851-1.535-1.167-2.739-0.708c-1.169,0.446-1.894,1.463-1.643,2.307l0.021,0.064
		c0.103,0.281,0.307,0.502,0.575,0.658c-0.38,0.814-0.423,1.707-0.176,2.519c-0.702-0.397-1.904-1.946-3.188-3.502
		c-0.68-2.419-2.774-1.302-2.551-0.414c0.205,0.819,0.788,7.66,2.578,7.249c-0.049,0.078-0.095,0.156-0.138,0.233
		c-0.278,0.495-0.492,1.052-0.6,1.624c-0.389,0.141-0.788,0.333-1.186,0.584c-0.431,0.273-0.814,0.597-1.146,0.926
		c-1.244-0.73-1.532-0.737-2.079-0.288c-0.532,0.438-0.389,1.424-0.142,2.063c0.327,0.841,1.275,1.623,1.958,1.847
		c0.502,0.165,1.106,0.196,1.65-0.028c0.63-0.261,0.857-0.381,1.514-0.797c0.337-0.213,0.646-0.449,0.924-0.699
		c0.084,0.054,0.17,0.107,0.262,0.158s0.182,0.097,0.271,0.139c-0.069,0.367-0.111,0.756-0.117,1.154
		c-0.014,0.777,0.003,1.035,0.108,1.708c0.091,0.581,0.433,1.081,0.835,1.424c0.547,0.466,1.708,0.869,2.596,0.711
		c0.674-0.121,1.591-0.513,1.688-1.195c0.1-0.7-0.057-0.943-1.328-1.625c0.107-0.454,0.185-0.949,0.194-1.459
		c0.008-0.469-0.036-0.91-0.118-1.314c0.432-0.389,0.795-0.862,1.073-1.36c0.026-0.045,0.052-0.093,0.076-0.14
		C92.631,84.326,93.629,85.413,94.41,85.17z M92.488,74.368c0.925,0.488,1.346,1.537,0.953,2.373l-0.035,0.061
		c-0.444,0.843-1.575,1.117-2.528,0.615c-0.952-0.502-1.362-1.593-0.919-2.434C90.404,74.143,91.535,73.866,92.488,74.368z"/>
</g>
</svg>
