<?xml version="1.0" encoding="utf-8"?>
<!-- Generator: Adobe Illustrator 15.1.0, SVG Export Plug-In . SVG Version: 6.00 Build 0)  -->
<!DOCTYPE svg PUBLIC "-//W3C//DTD SVG 1.1 Tiny//EN" "http://www.w3.org/Graphics/SVG/1.1/DTD/svg11-tiny.dtd">
<svg version="1.1" baseProfile="tiny" id="Layer_1" xmlns="http://www.w3.org/2000/svg" xmlns:xlink="http://www.w3.org/1999/xlink"
	 x="0px" y="0px" width="120px" height="120px" viewBox="0 0 120 120" xml:space="preserve">
<g>
	<path fill="none" stroke="#FFFFFF" stroke-width="2" stroke-linecap="round" stroke-linejoin="round" stroke-miterlimit="10" d="
		M37.46,97.016c-0.114,0.371-0.331,0.495-0.695,0.483c-0.493-0.016-0.988-0.004-1.461-0.004c0.35-0.287,0.81-0.47,1.305-0.586
		c0.105-0.024,0.255-0.059,0.29-0.133c0.373-0.785,1.15-1.044,1.832-1.41c0.338-0.182,0.739-0.25,1.128-0.375
		c-0.062-0.109-0.134-0.213-0.188-0.327c-0.181-0.379-0.113-0.768,0.258-0.957c0.409-0.208,0.634-0.502,0.833-0.909
		c0.275-0.565,0.856-0.777,1.443-0.92c0.202-0.049,0.411-0.071,0.591-0.101c0.169-0.447,0.233-0.97,0.519-1.299
		c0.518-0.596,0.698-1.294,0.977-1.992c0.676-1.69,1.894-2.968,3.459-3.899c0.675-0.399,1.366-0.395,2.052,0.003
		c0.178,0.104,0.365,0.194,0.56,0.298c0.618-2.425,1.236-4.851,1.854-7.275"/>
	<path fill="none" stroke="#FFFFFF" stroke-width="2" stroke-linecap="round" stroke-linejoin="round" stroke-miterlimit="10" d="
		M70.244,82.281c-0.056,1.071-0.118,2.142-0.18,3.213c-0.005,0.09-0.001,0.18-0.001,0.295c1.108,0.122,1.617,0.447,1.771,1.252
		c0.092,0.485,0.148,0.942,0.49,1.337c0.13,0.149,0.12,0.418,0.185,0.67c0.521-0.184,1.08-0.358,1.428,0.283
		c0.296,0.543,0.058,1.072-0.085,1.506c0.198,0.385,0.365,0.707,0.531,1.03l-0.078,0.047c0.219,0.075,0.472,0.106,0.654,0.236
		c0.289,0.209,0.634,0.437,0.772,0.741c0.279,0.602,0.433,1.262,0.651,1.937c0.93-0.093,1.939-0.203,2.352,1.039
		c1.655-0.292,3.098-0.024,3.465,0.679c-0.339,0.059-0.637,0.034-0.943-0.111c-0.201-0.097-0.445-0.162-0.663-0.15
		c-0.675,0.039-1.359,0.082-1.896,0.545c-0.303-0.165-0.311-0.606-0.705-0.626c-0.018-0.001-0.043-0.062-0.047-0.097
		c-0.054-0.501-0.424-0.559-0.806-0.547c-0.324,0.01-0.649,0.066-0.969,0.123c-0.57,0.099-0.857-0.172-0.71-0.719
		c0.072-0.278,0.062-0.489-0.126-0.725c-0.104-0.126-0.112-0.341-0.128-0.518c-0.056-0.611-0.598-1.145-1.199-1.14
		c-0.125,0.002-0.249,0.093-0.351,0.134c0.313,0.363,0.601,0.696,0.888,1.03c-0.032,0.035-0.065,0.07-0.098,0.105
		c-0.604-0.518-1.347-0.651-2.089-0.805c-0.146-0.029-0.351-0.234-0.357-0.37c-0.01-0.134,0.17-0.333,0.315-0.409
		c0.202-0.105,0.458-0.102,0.677-0.184c0.198-0.073,0.376-0.199,0.604-0.323c-0.104-0.108-0.146-0.179-0.207-0.214
		c-0.362-0.208-0.368-0.492-0.222-0.842c0.099-0.24,0.188-0.493,0.222-0.748c0.049-0.375-0.105-0.487-0.458-0.37
		c-0.148,0.05-0.284,0.133-0.428,0.192c-0.381,0.153-0.638,0.021-0.677-0.377c-0.039-0.418-0.09-0.105-0.549-0.321
		c-0.133-0.062-0.18-0.437-0.164-0.661c0.058-0.808-0.273-1.269-1.061-1.372c-0.039,0.255-0.123,0.489,0.203,0.66
		c0.693,0.366,0.844,0.751,0.626,1.511c-0.054,0.186-0.142,0.36-0.296,0.539c-0.032-0.154-0.076-0.31-0.096-0.467
		c-0.095-0.829-0.856-1.186-1.445-1.146c-0.242,0.017-0.521-0.509-0.697-0.332c-0.216,0.217-0.425,0.346-0.722,0.288
		c-1.183-0.232-2.21,0.225-3.233,0.708c-0.075,0.035-0.147,0.115-0.181,0.192c-0.291,0.656-0.942,0.9-1.429,1.332
		c-0.024-0.022-0.052-0.047-0.077-0.069c0.173-0.238,0.356-0.469,0.514-0.718c0.192-0.306,0.341-0.643,0.549-0.938
		c0.113-0.158,0.294-0.282,0.469-0.376c0.245-0.132,0.517-0.214,0.519-0.566c0.002-0.36-0.226-0.541-0.516-0.671
		c-0.68-0.303-1.164-0.191-1.738,0.32c-0.174,0.152-0.44,0.206-0.668,0.292c-0.207,0.077-0.435,0.111-0.63,0.208
		c-0.226,0.11-0.357,0.29-0.273,0.578c0.107,0.362-0.019,0.641-0.359,0.818c-0.432,0.226-0.761,0.548-0.964,0.999
		c-0.111,0.249-0.305,0.368-0.573,0.232c-0.616-0.314-1.227-0.639-1.932-1.008c0.797-0.145,1.408,0.131,2.014,0.422
		c0.023-0.029,0.046-0.059,0.07-0.086c-0.082-0.078-0.152-0.178-0.247-0.23c-0.572-0.314-0.636-0.442-0.51-1.064
		c0.145-0.713-0.217-1.25-0.981-1.311c-1.002-0.079-2.01-0.107-3.015-0.101c-0.712,0.005-1.05,0.331-1.258,1.089
		c0.393-0.307,0.811-0.41,1.22-0.226c0.385,0.173,0.799,0.371,1.077,0.673c0.458,0.496,0.818,1.084,1.219,1.633
		c0.255,0.348,0.512,0.694,0.8,1.083c0.406-0.157,0.827-0.151,1.196,0.2c0.05,0.047,0.193,0.006,0.291-0.007
		c0.36-0.042,0.717-0.089,1.082-0.081c-0.372,0.154-0.735,0.331-1.117,0.45c-0.142,0.045-0.373,0.008-0.485-0.086
		c-0.264-0.219-0.51-0.313-0.816-0.117c-0.236,0.15-0.339,0.04-0.496-0.164c-0.423-0.553-0.89-1.071-1.351-1.595
		c-0.207-0.234-0.426-0.463-0.661-0.669c-0.253-0.22-0.518-0.437-0.807-0.603c-0.252-0.145-0.485-0.072-0.755,0.104
		c-0.228,0.151-0.591,0.188-0.878,0.149c-0.678-0.092-0.779-0.063-0.936,0.588c-0.074,0.305-0.256,0.472-0.56,0.424
		c-0.538-0.086-1.07-0.208-1.605-0.313c0.003-0.045,0.007-0.09,0.011-0.135h1.527c0.038-0.576,0.225-1.007,0.679-1.216
		c-0.189-0.411-0.337-0.816-0.553-1.183c-0.191-0.32-0.415-0.648-0.703-0.876c-0.406-0.323-0.862-0.605-1.336-0.811
		c-0.255-0.109-0.654-0.132-0.886-0.006c-1.49,0.804-2.561,2.021-3.235,3.571c-0.204,0.468-0.086,0.784,0.306,1.111
		c0.08,0.066,0.167,0.126,0.255,0.183c0.579,0.374,0.644,0.588,0.359,1.199c-0.277,0.593-0.267,0.622,0.372,0.783
		c0.529,0.133,1.061,0.251,1.592,0.375c0.004,0.035,0.007,0.071,0.011,0.107c-0.146,0.056-0.292,0.159-0.439,0.161
		c-0.572,0.007-1.156,0.052-1.713-0.046c-0.783-0.136-1.025-0.65-0.765-1.399c0.038-0.109,0.081-0.219,0.12-0.327
		c-0.291-0.256-0.572-0.503-0.883-0.773c-0.346,0.442-0.564,0.939-0.574,1.521c-0.009,0.618-0.166,0.772-0.79,0.815
		c-0.746,0.052-1.389,0.246-1.789,0.993c-0.154,0.289-0.554,0.445-0.851,0.671"/>
	<path fill="none" stroke="#FFFFFF" stroke-width="2" stroke-linecap="round" stroke-linejoin="round" stroke-miterlimit="10" d="
		M52.217,77.611c0.471-1.85,0.942-3.699,1.413-5.55c0.261-1.021,0.716-2.035,0.767-3.1c0.011-0.235-0.004-0.455-0.041-0.663
		c-0.153-0.873-0.675-1.548-1.149-2.352c-1.307-2.216-2.95-4.163-4.87-5.872c-0.464-0.413-1.036-0.71-1.577-1.027
		c-0.467-0.274-0.831-0.614-1.073-1.108c-0.423-0.863-1.154-1.451-1.898-2.014c-0.469-0.355-0.981-0.655-1.446-1.016
		c-0.195-0.151-0.393-0.371-0.465-0.599c-0.588-1.844-1.151-3.696-1.709-5.55c-0.097-0.323-0.162-0.661-0.199-0.997
		c-0.149-1.32,1.049-2.338,2.458-1.984c1.368,0.344,2.249,1.291,2.886,2.49c0.281,0.531,0.503,1.094,0.76,1.639
		c0.046,0.099,0.112,0.211,0.201,0.265c0.677,0.417,1.174,1.002,1.563,1.682c0.146,0.256,0.314,0.385,0.625,0.444
		c0.691,0.128,1.361,0.371,2.051,0.504c0.482,0.092,1.027,0.213,1.465,0.073c0.384-0.124,0.686-0.569,0.978-0.912
		c0.82-0.966,0.671-2.13,0.613-3.267c-0.061-1.192-0.146-2.382-0.211-3.574c-0.066-1.212-0.364-2.377-0.996-3.398
		c-0.77-1.244-0.908-2.568-0.816-3.968c0.109-1.675,0.181-3.353,0.306-5.027c0.139-1.856,0.322-3.708,0.938-5.483
		c0.107-0.309,0.236-0.612,0.38-0.905c0.7-1.426,1.768-1.835,3.415-1.429c0.91,0.223,1.468,1.061,1.55,2.105
		c0.087,1.128-0.116,2.214-0.412,3.297c-0.152,0.551-0.243,1.125-0.285,1.695c-0.096,1.306-0.133,2.617-0.218,3.924
		c-0.063,0.961,0,1.869,0.565,2.712c0.355,0.528,0.573,1.147,0.891,1.704c0.35,0.613,1.273,0.982,1.943,0.798
		c0.108-0.03,0.241-0.168,0.265-0.276c0.283-1.384,0.574-2.768,0.811-4.16c0.111-0.653,0.187-1.332,0.14-1.989
		c-0.088-1.245,0.17-2.454,0.252-3.681c0.093-1.385,0.118-2.776,0.23-4.159c0.063-0.804,0.178-1.614,0.379-2.393
		c0.525-2.029,2.165-2.25,3.585-1.79c1.246,0.402,1.837,1.261,1.904,2.764c0.048,1.064,0.327,1.76,0.143,2.816
		c-0.453,2.594-0.457,5.102-0.863,7.702c-0.151,0.971-0.247,1.957-0.191,2.94c0.034,0.585,0.219,2.631,1.142,3.502
		c2.348-0.093,4.218-4.651,4.563-6.611c0.079-0.452,0.419-0.854,0.26-1.352c-0.042-0.131-0.082-0.266-0.14-0.39
		c-0.127-0.272-0.296-0.528-0.396-0.81c-0.454-1.291,0.146-2.236,1.508-2.418c0.677-0.09,1.287,0.069,1.79,0.519
		c1.112,0.995,1.854,2.255,2.282,3.657c0.154,0.502,0.022,1.158-0.156,1.684c-0.468,1.388-1.042,2.739-1.556,4.112
		c-0.323,0.859-0.615,1.73-0.583,2.669c0.006,0.169,0.03,0.339,0.064,0.504c0.265,1.312,1.224,1.357,2.24,1.076
		c0.068-0.019,0.126-0.09,0.182-0.145c0.34-0.345,0.681-0.69,1.016-1.04c0.274-0.286,0.431-0.594,0.336-1.026
		c-0.041-0.186,0.057-0.441,0.171-0.613c0.132-0.201,0.131-0.35,0.058-0.569c-0.358-1.065-0.24-2.074,0.465-2.97
		c0.553-0.704,1.375-0.818,2.083-0.266c0.323,0.253,0.606,0.583,0.835,0.928c0.577,0.869,0.963,1.831,1.176,2.852
		c0.189,0.904,0.046,1.789-0.376,2.598c-0.472,0.904-0.963,1.806-1.535,2.648c-1.019,1.501-1.863,3.09-2.675,4.711
		c-0.931,1.86-1.99,3.657-3.02,5.47c-0.393,0.693-0.27,1.481-0.331,2.243c-0.244,3.006-1.532,6.065-3.432,8.405
		c-0.537,0.662-0.842,1.532-1.173,2.339c-0.924,2.259-1.451,4.616-1.596,7.053c-0.091,1.532-0.152,3.065-0.231,4.598"/>
	<path fill="none" stroke="#FFFFFF" stroke-width="2" stroke-linecap="round" stroke-linejoin="round" stroke-miterlimit="10" d="
		M58.431,47.148c1.038,0.462,1.941,1.122,2.805,1.846c0.842,0.706,1.446,1.579,1.905,2.567c0.868,1.871,1.737,3.714,2.462,5.246
		c0.15-0.234,0.176,4.84-0.325,7.609c-0.022,0.122-0.076,0.238-0.178,0.345"/>
	<path fill="none" stroke="#FFFFFF" stroke-width="2" stroke-linecap="round" stroke-linejoin="round" stroke-miterlimit="10" d="
		M63.552,73.353c-0.499,3.034-1.226,6.019-2.075,8.974"/>
	<path fill="none" stroke="#FFFFFF" stroke-width="2" stroke-linecap="round" stroke-linejoin="round" stroke-miterlimit="10" d="
		M60.201,77.84c0.204-1.733,0.408-3.465,0.613-5.198"/>
	<path fill="none" stroke="#FFFFFF" stroke-width="2" stroke-linecap="round" stroke-linejoin="round" stroke-miterlimit="10" d="
		M69.564,53.754c-1.411,0.958-1.882,2.621-2.934,3.841"/>
	
		<line fill="none" stroke="#FFFFFF" stroke-width="2" stroke-linecap="round" stroke-linejoin="round" stroke-miterlimit="10" x1="54.628" y1="69.172" x2="58.211" y2="69.647"/>
	<path fill="none" stroke="#FFFFFF" stroke-width="2" stroke-linecap="round" stroke-linejoin="round" stroke-miterlimit="10" d="
		M71.39,71.226c-0.498,0.15-1.014,0.244-1.53,0.282c-0.382,0.026-0.777-0.083-1.147,0.01"/>
</g>
</svg>
