<?xml version="1.0" encoding="utf-8"?>
<!-- Generator: Adobe Illustrator 15.1.0, SVG Export Plug-In . SVG Version: 6.00 Build 0)  -->
<!DOCTYPE svg PUBLIC "-//W3C//DTD SVG 1.1 Tiny//EN" "http://www.w3.org/Graphics/SVG/1.1/DTD/svg11-tiny.dtd">
<svg version="1.1" baseProfile="tiny" id="Layer_1" xmlns="http://www.w3.org/2000/svg" xmlns:xlink="http://www.w3.org/1999/xlink"
	 x="0px" y="0px" width="120px" height="120px" viewBox="0 0 120 120" xml:space="preserve">
<line fill="none" stroke="#FFFFFF" stroke-width="2" stroke-linecap="round" stroke-linejoin="round" stroke-miterlimit="10" x1="58.645" y1="97.204" x2="58.645" y2="90.015"/>
<line fill="none" stroke="#FFFFFF" stroke-width="2" stroke-linecap="round" stroke-linejoin="round" stroke-miterlimit="10" x1="66.859" y1="97.204" x2="66.859" y2="90.015"/>
<line fill="none" stroke="#FFFFFF" stroke-width="2" stroke-linecap="round" stroke-linejoin="round" stroke-miterlimit="10" x1="53.434" y1="44.268" x2="55.93" y2="71.531"/>
<line fill="none" stroke="#FFFFFF" stroke-width="2" stroke-linecap="round" stroke-linejoin="round" stroke-miterlimit="10" x1="72.013" y1="44.654" x2="69.243" y2="71.532"/>
<line fill="none" stroke="#FFFFFF" stroke-width="2" stroke-linecap="round" stroke-linejoin="round" stroke-miterlimit="10" x1="56.914" y1="98.915" x2="61.022" y2="98.915"/>
<line fill="none" stroke="#FFFFFF" stroke-width="2" stroke-linecap="round" stroke-linejoin="round" stroke-miterlimit="10" x1="64.806" y1="98.915" x2="68.913" y2="98.915"/>
<g>
	<path fill="none" stroke="#FFFFFF" stroke-width="2" stroke-linecap="round" stroke-linejoin="round" stroke-miterlimit="10" d="
		M72.284,46.097c-0.13-2.402-1.749-4.366-3.925-5.073l1.097,16.22l-1.032,2.797l-2.026,2.397c0,0-1.467-1.872-2.026-2.047
		c-0.561-0.175-0.884-1.923-0.884-1.923l-0.922,1.049l-1.316,1.923l-1.878-2.098l-2.627,1.049l0.263-19.42
		c-2.115,0.626-3.719,2.477-3.906,4.778l-1.793,43.386h21.86L72.284,46.097z"/>
	<path fill="none" stroke="#FFFFFF" stroke-width="2" stroke-linecap="round" stroke-linejoin="round" stroke-miterlimit="10" d="
		M56.621,35.77l-0.333,24.621l2.627-1.049l1.878,2.098l1.316-1.923l0.922-1.049c0,0,0.323,1.748,0.884,1.923
		c0.56,0.175,2.026,2.047,2.026,2.047l2.026-2.397L69,57.244l-1.539-22.761c-0.213-3.146-2.382-5.567-4.985-5.567h-0.104
		C59.231,28.916,56.672,31.966,56.621,35.77z"/>
</g>
</svg>
