<?xml version="1.0" encoding="utf-8"?>
<!-- Generator: Adobe Illustrator 15.1.0, SVG Export Plug-In . SVG Version: 6.00 Build 0)  -->
<!DOCTYPE svg PUBLIC "-//W3C//DTD SVG 1.1 Tiny//EN" "http://www.w3.org/Graphics/SVG/1.1/DTD/svg11-tiny.dtd">
<svg version="1.1" baseProfile="tiny" id="Layer_1" xmlns="http://www.w3.org/2000/svg" xmlns:xlink="http://www.w3.org/1999/xlink"
	 x="0px" y="0px" width="120px" height="120px" viewBox="0 0 120 120" xml:space="preserve">
<g>
	<path fill="none" stroke="#FFFFFF" stroke-width="2" stroke-linecap="round" stroke-linejoin="round" stroke-miterlimit="10" d="
		M54.006,58.568c-1.517-3.477-6.193-5.269-9.85-4.86c-4.729,0.527-7.187,3.676-8.017,8.071c0,0-0.053,0.278-0.053,0.281
		c-1.048,5.551,0.19,11.646,1.721,16.989l12.158-0.486c0.911-0.035,1.876-0.09,2.627-0.606c0.92-0.633,1.288-1.796,1.555-2.88
		C55.035,71.45,55.585,62.186,54.006,58.568z"/>
	<path fill="none" stroke="#FFFFFF" stroke-width="2" stroke-linecap="round" stroke-linejoin="round" stroke-miterlimit="10" d="
		M51.371,96.135c2.092-1.596,2.822-4.509,2.812-7.021c-0.002-0.434-0.617-5.931-1.071-5.951c-4.818-0.206-9.577,0.048-14.378,0.411
		c0,0,0.308,2.558,0.308,2.561c0.522,4.333,2.28,10.738,7.625,11.279C48.236,97.71,50.172,97.23,51.371,96.135"/>
	<path fill="none" stroke="#FFFFFF" stroke-width="2" stroke-linecap="round" stroke-linejoin="round" stroke-miterlimit="10" d="
		M65.994,27.417c1.517-3.477,6.193-5.269,9.85-4.86c4.729,0.527,7.188,3.676,8.018,8.071c0,0,0.053,0.279,0.053,0.282
		c1.048,5.55-0.19,11.645-1.721,16.989c-4.054-0.162-8.105-0.324-12.158-0.486c-0.911-0.036-1.876-0.09-2.627-0.607
		c-0.92-0.633-1.288-1.796-1.555-2.88C64.965,40.299,64.416,31.036,65.994,27.417z"/>
	<path fill="none" stroke="#FFFFFF" stroke-width="2" stroke-linecap="round" stroke-linejoin="round" stroke-miterlimit="10" d="
		M68.629,64.984c-2.092-1.596-2.822-4.508-2.813-7.021c0.003-0.434,0.618-5.931,1.072-5.951c4.817-0.206,9.576,0.048,14.378,0.411
		c0,0-0.309,2.558-0.309,2.56c-0.521,4.333-2.28,10.739-7.625,11.28C71.764,66.56,69.828,66.08,68.629,64.984"/>
</g>
</svg>
