<?xml version="1.0" encoding="utf-8"?>
<!-- Generator: Adobe Illustrator 15.1.0, SVG Export Plug-In . SVG Version: 6.00 Build 0)  -->
<!DOCTYPE svg PUBLIC "-//W3C//DTD SVG 1.1 Tiny//EN" "http://www.w3.org/Graphics/SVG/1.1/DTD/svg11-tiny.dtd">
<svg version="1.1" baseProfile="tiny" id="Layer_1" xmlns="http://www.w3.org/2000/svg" xmlns:xlink="http://www.w3.org/1999/xlink"
	 x="0px" y="0px" width="120px" height="120px" viewBox="0 0 120 120" xml:space="preserve">
<g>
	<path fill="none" stroke="#FFFFFF" stroke-width="2" stroke-linecap="round" stroke-linejoin="round" stroke-miterlimit="10" d="
		M75.078,75.458c0,5.313-4.307,9.62-9.62,9.62H34.541c-5.313,0-9.62-4.307-9.62-9.62V44.543c0-5.314,4.307-9.621,9.62-9.621h30.917
		c5.313,0,9.62,4.307,9.62,9.621V75.458z"/>
	<path fill="none" stroke="#FFFFFF" stroke-width="2" stroke-linecap="round" stroke-linejoin="round" stroke-miterlimit="10" d="
		M92.963,59.674c0,0,0.513-5.513,1.795-8.718c1.106-2.767-0.79-5.869-3.489-6.773c-5.959-1.996-9.228,4.803-8.987,9.081
		c0,0-0.151,3.49-7.203,3.49"/>
	<path fill="none" stroke="#FFFFFF" stroke-width="2" stroke-linecap="round" stroke-linejoin="round" stroke-miterlimit="10" d="
		M92.963,60.327c0,0,0.513,5.513,1.795,8.718c1.106,2.767-0.79,5.869-3.489,6.773c-5.959,1.996-9.228-4.805-8.987-9.081
		c0,0-0.151-3.49-7.203-3.49"/>
	
		<circle fill="none" stroke="#FFFFFF" stroke-width="2" stroke-linecap="round" stroke-linejoin="round" stroke-miterlimit="10" cx="88.002" cy="52.203" r="2.45"/>
	
		<circle fill="none" stroke="#FFFFFF" stroke-width="2" stroke-linecap="round" stroke-linejoin="round" stroke-miterlimit="10" cx="88.002" cy="68.072" r="2.45"/>
	<path fill="none" stroke="#FFFFFF" stroke-width="2" stroke-linecap="round" stroke-linejoin="round" stroke-miterlimit="10" d="
		M44.154,70.072c0,2.104-1.706,2.913-3.81,2.913s-3.81-0.809-3.81-2.913c0-2.104,1.706-2.913,3.81-2.913
		S44.154,67.969,44.154,70.072z"/>
	<path fill="none" stroke="#FFFFFF" stroke-width="2" stroke-linecap="round" stroke-linejoin="round" stroke-miterlimit="10" d="
		M59.47,66.262c0,2.104-1.706,2.913-3.81,2.913s-3.81-0.81-3.81-2.913c0-2.104,1.706-2.912,3.81-2.912S59.47,64.157,59.47,66.262z"
		/>
	<path d="M59.47,47.015v19.247V47.015z"/>
	<path fill="none" stroke="#FFFFFF" stroke-width="2" stroke-linecap="round" stroke-linejoin="round" stroke-miterlimit="10" d="
		M59.47,47.015v19.247V47.015z"/>
	
		<polyline fill="none" stroke="#FFFFFF" stroke-width="2" stroke-linecap="round" stroke-linejoin="round" stroke-miterlimit="10" points="
		44.154,70.072 44.154,51.273 59.47,47.014 	"/>
</g>
</svg>
