<?xml version="1.0" encoding="utf-8"?>
<!-- Generator: Adobe Illustrator 15.1.0, SVG Export Plug-In . SVG Version: 6.00 Build 0)  -->
<!DOCTYPE svg PUBLIC "-//W3C//DTD SVG 1.1 Tiny//EN" "http://www.w3.org/Graphics/SVG/1.1/DTD/svg11-tiny.dtd">
<svg version="1.1" baseProfile="tiny" id="Layer_1" xmlns="http://www.w3.org/2000/svg" xmlns:xlink="http://www.w3.org/1999/xlink"
	 x="0px" y="0px" width="120px" height="120px" viewBox="0 0 120 120" xml:space="preserve">
<g>
	<path fill="none" stroke="#FFFFFF" stroke-width="2" stroke-linecap="round" stroke-linejoin="round" stroke-miterlimit="10" d="
		M80.473,64.897c0-0.083-0.178-0.519-0.238-0.568L62.07,42.436V32.126h3.617c1.323,0,1.992-1.016,1.992-1.939
		c0-0.918-0.67-1.943-1.992-1.943H62.07v-3.8c0-1.285-1.045-1.944-1.994-1.944c-0.944,0-1.99,0.659-1.99,1.944v3.8h-3.907
		c-1.322,0-1.987,1.025-1.987,1.943c0,0.923,0.665,1.939,1.987,1.939h3.907v10.279L39.74,64.338c-0.061,0.063-0.24,0.497-0.24,0.567
		V96.7c0,0.428,0.386,0.801,0.827,0.801H50.5c0.439,0,0.827-0.373,0.827-0.801v-4.498c-0.383-3.371,4.53-8.043,8.724-8.283
		c3.421-0.196,8.622,4.793,8.622,8.283V96.7c0,0.428,0.392,0.801,0.827,0.801h10.174c0.444,0,0.826-0.373,0.826-0.801L80.473,64.897
		z"/>
	
		<circle fill="none" stroke="#FFFFFF" stroke-width="2" stroke-linecap="round" stroke-linejoin="round" stroke-miterlimit="10" cx="60.079" cy="64.919" r="5"/>
	<path fill="none" stroke="#FFFFFF" stroke-width="2" stroke-linecap="round" stroke-linejoin="round" stroke-miterlimit="10" d="
		M30.19,97.5h9.31v-29h-0.11c-6.015,0-10.89,4.876-10.89,10.891v16.42C28.5,96.743,29.256,97.5,30.19,97.5z"/>
	<path fill="none" stroke="#FFFFFF" stroke-width="2" stroke-linecap="round" stroke-linejoin="round" stroke-miterlimit="10" d="
		M89.81,97.5H80.5v-29h0.109c6.016,0,10.891,4.876,10.891,10.891v16.42C91.5,96.743,90.743,97.5,89.81,97.5z"/>
</g>
</svg>
