<?xml version="1.0" encoding="utf-8"?>
<!-- Generator: Adobe Illustrator 15.1.0, SVG Export Plug-In . SVG Version: 6.00 Build 0)  -->
<!DOCTYPE svg PUBLIC "-//W3C//DTD SVG 1.1 Tiny//EN" "http://www.w3.org/Graphics/SVG/1.1/DTD/svg11-tiny.dtd">
<svg version="1.1" baseProfile="tiny" id="Layer_1" xmlns="http://www.w3.org/2000/svg" xmlns:xlink="http://www.w3.org/1999/xlink"
	 x="0px" y="0px" width="120px" height="120px" viewBox="0 0 120 120" xml:space="preserve">
<polygon fill="none" stroke="#FFFFFF" stroke-width="1.958" stroke-linecap="round" stroke-linejoin="round" stroke-miterlimit="10" points="
	44.541,92.947 38.794,67.658 26.149,71.107 25,61.911 35.345,58.462 34.196,49.265 41.093,46.967 44.541,55.013 56.036,53.864 
	56.036,61.911 45.69,64.21 51.438,92.947 "/>
<polygon fill="none" stroke="#FFFFFF" stroke-width="1.958" stroke-linecap="round" stroke-linejoin="round" stroke-miterlimit="10" points="
	85.84,63.982 86.814,56.188 80.708,53.857 77.695,60.545 70.596,59.432 70.189,66.545 76.722,68.34 71.771,92.579 77.868,92.947 
	82.834,71.653 94.025,75.273 95,67.479 "/>
<polygon fill="none" stroke="#FFFFFF" stroke-width="1.958" stroke-linecap="round" stroke-linejoin="round" stroke-miterlimit="10" points="
	72.13,40.069 71.903,27.052 61.352,27.425 60.635,40.069 47.352,41.219 47.352,50.417 60.635,51.564 57.186,92.947 68.681,92.947 
	70.189,66.545 70.596,59.431 70.979,52.715 85.924,51.564 87.072,40.12 "/>
</svg>
