<?xml version="1.0" encoding="utf-8"?>
<!-- Generator: Adobe Illustrator 15.1.0, SVG Export Plug-In . SVG Version: 6.00 Build 0)  -->
<!DOCTYPE svg PUBLIC "-//W3C//DTD SVG 1.1 Tiny//EN" "http://www.w3.org/Graphics/SVG/1.1/DTD/svg11-tiny.dtd">
<svg version="1.1" baseProfile="tiny" id="Layer_1" xmlns="http://www.w3.org/2000/svg" xmlns:xlink="http://www.w3.org/1999/xlink"
	 x="0px" y="0px" width="120px" height="120px" viewBox="0 0 120 120" xml:space="preserve">
<g>
	<path fill="none" stroke="#FFFFFF" stroke-width="2" stroke-linecap="round" stroke-linejoin="round" stroke-miterlimit="10" d="
		M60,26.93c20.711,0,37.5,13.545,37.5,30.254c0,6.52-2.562,12.555-6.912,17.494c-0.19,0.216-0.299,0.493-0.3,0.781l-0.056,16.409
		c-0.004,0.813-0.793,1.391-1.568,1.146l-20.729-6.549c-0.139-0.043-0.28-0.064-0.426-0.06c-3.029,0.111-6.406,0.826-9.789,0.916
		c-0.392,0.011-0.783,0.016-1.171,0.016c-20.079,0-34.05-13.765-34.05-30.154C22.5,40.475,39.289,26.93,60,26.93"/>
	<path fill="#FFFFFF" d="M38.783,65.901c1.73-0.183,2.596-0.984,2.599-2.405c0-0.441-0.171-0.766-0.513-0.978
		c-0.343-0.209-0.775-0.392-1.296-0.547c-0.522-0.156-1.088-0.315-1.694-0.485c-0.609-0.168-1.172-0.423-1.695-0.766
		c-0.521-0.34-0.953-0.805-1.294-1.394c-0.342-0.587-0.512-1.321-0.51-2.195c0.001-0.872,0.097-1.623,0.284-2.248
		c0.188-0.625,0.47-1.157,0.845-1.591c0.827-0.932,1.973-1.333,3.438-1.243c1.169,0.072,2.299,0.399,3.39,0.951
		c0.217,0.112,0.384,0.277,0.501,0.5c0.116,0.221,0.174,0.465,0.174,0.73c0,0.267-0.091,0.515-0.27,0.746
		c-0.181,0.233-0.355,0.349-0.527,0.345c-0.172-0.004-0.382-0.059-0.631-0.165c-0.748-0.319-1.567-0.499-2.454-0.526
		c-0.889-0.029-1.563,0.16-2.024,0.572c-0.461,0.412-0.69,0.921-0.692,1.516c-0.001,0.597,0.174,1.038,0.523,1.322
		c0.351,0.283,0.783,0.512,1.297,0.69c0.514,0.18,1.078,0.355,1.695,0.523c0.614,0.169,1.179,0.407,1.692,0.71
		c1.215,0.761,1.821,1.938,1.817,3.581c-0.002,1.254-0.378,2.305-1.128,3.187c-0.811,0.969-1.942,1.569-3.392,1.764
		c-1.574,0.21-2.99-0.07-4.253-0.902c-0.264-0.229-0.397-0.543-0.396-0.936c0.001-0.394,0.087-0.733,0.259-1.023
		c0.172-0.287,0.359-0.439,0.563-0.458c0.202-0.018,0.443,0.047,0.723,0.193C36.719,65.842,37.707,66.011,38.783,65.901"/>
	<path fill="#FFFFFF" d="M52.198,55.05c-1.372-0.041-2.651,0.762-3.839,2.534c-0.005,2.758-0.011,5.516-0.016,8.273
		c-0.001,0.35-0.108,0.656-0.318,0.923c-0.212,0.267-0.465,0.421-0.761,0.46c-0.297,0.038-0.546-0.05-0.747-0.268
		c-0.203-0.219-0.303-0.509-0.302-0.869c0.012-6.136,0.024-12.27,0.036-18.402c0.001-0.377,0.102-0.676,0.306-0.893
		c0.202-0.217,0.452-0.304,0.748-0.263s0.549,0.197,0.76,0.465c0.209,0.268,0.315,0.585,0.314,0.952
		c-0.005,2.398-0.01,4.796-0.015,7.194c0.624-0.755,1.164-1.264,1.616-1.548c0.889-0.551,1.735-0.787,2.538-0.739
		c0.803,0.049,1.462,0.223,1.975,0.512c0.515,0.29,0.95,0.666,1.308,1.126c0.73,0.94,1.093,2.064,1.09,3.417
		c-0.005,2.314-0.01,4.63-0.015,6.945c-0.001,0.311-0.108,0.583-0.318,0.823c-0.213,0.239-0.464,0.38-0.76,0.42
		c-0.297,0.039-0.546-0.036-0.747-0.228c-0.204-0.192-0.304-0.449-0.303-0.77c0.005-2.305,0.01-4.609,0.013-6.915
		c0.005-0.959-0.193-1.71-0.589-2.268C53.776,55.377,53.118,55.076,52.198,55.05"/>
	<path fill="#FFFFFF" d="M66.437,55.458c-1.372-0.039-2.651,0.598-3.839,2.039c-0.005,2.235-0.011,4.473-0.017,6.71
		c-0.001,0.284-0.107,0.534-0.317,0.756c-0.212,0.222-0.465,0.354-0.761,0.393c-0.297,0.041-0.546-0.025-0.747-0.198
		c-0.203-0.175-0.304-0.409-0.303-0.703c0.013-5.008,0.024-10.016,0.036-15.018c0.001-0.308,0.103-0.55,0.307-0.722
		c0.202-0.172,0.451-0.237,0.748-0.196c0.296,0.041,0.549,0.174,0.76,0.397c0.209,0.222,0.314,0.481,0.313,0.779
		c-0.005,1.945-0.01,3.889-0.015,5.835c0.624-0.611,1.164-1.018,1.616-1.244c0.889-0.436,1.735-0.616,2.538-0.568
		c0.803,0.047,1.462,0.193,1.975,0.428c0.515,0.235,0.95,0.537,1.308,0.904c0.73,0.748,1.094,1.632,1.091,2.695
		c-0.006,1.821-0.011,3.644-0.016,5.466c-0.001,0.244-0.107,0.462-0.317,0.657c-0.211,0.194-0.465,0.313-0.761,0.353
		c-0.297,0.04-0.546-0.012-0.747-0.159c-0.203-0.146-0.304-0.348-0.303-0.602c0.005-1.829,0.01-3.658,0.013-5.486
		c0.005-0.761-0.192-1.356-0.589-1.802C68.015,55.727,67.356,55.485,66.437,55.458"/>
	<path fill="#FFFFFF" d="M80.674,55.852c-1.372-0.038-2.651,0.435-3.839,1.542c-0.005,1.715-0.011,3.432-0.017,5.147
		c-0.001,0.218-0.107,0.414-0.317,0.59c-0.212,0.177-0.465,0.287-0.761,0.326c-0.297,0.041-0.546-0.002-0.747-0.131
		c-0.203-0.129-0.305-0.308-0.303-0.535c0.013-3.88,0.024-7.76,0.036-11.636c0.001-0.239,0.103-0.424,0.307-0.551
		c0.202-0.127,0.451-0.17,0.748-0.129c0.296,0.041,0.549,0.151,0.76,0.329c0.209,0.177,0.314,0.378,0.313,0.607
		c-0.005,1.49-0.01,2.982-0.015,4.474c0.624-0.465,1.164-0.77,1.616-0.938c0.889-0.323,1.735-0.445,2.538-0.399
		c0.803,0.046,1.462,0.165,1.975,0.345c0.515,0.181,0.95,0.409,1.308,0.681c0.73,0.556,1.094,1.2,1.091,1.976
		c-0.006,1.328-0.011,2.656-0.016,3.985c-0.001,0.178-0.107,0.341-0.317,0.49c-0.212,0.15-0.465,0.246-0.761,0.286
		c-0.297,0.04-0.546,0.01-0.747-0.091c-0.203-0.101-0.304-0.246-0.303-0.433c0.005-1.355,0.01-2.708,0.015-4.061
		c0.003-0.563-0.194-1.002-0.591-1.334C82.252,56.063,81.594,55.877,80.674,55.852"/>
</g>
</svg>
