<?xml version="1.0" encoding="utf-8"?>
<!-- Generator: Adobe Illustrator 15.1.0, SVG Export Plug-In . SVG Version: 6.00 Build 0)  -->
<!DOCTYPE svg PUBLIC "-//W3C//DTD SVG 1.1 Tiny//EN" "http://www.w3.org/Graphics/SVG/1.1/DTD/svg11-tiny.dtd">
<svg version="1.1" baseProfile="tiny" id="Layer_1" xmlns="http://www.w3.org/2000/svg" xmlns:xlink="http://www.w3.org/1999/xlink"
	 x="0px" y="0px" width="120px" height="120px" viewBox="0 0 120 120" xml:space="preserve">
<g>
	<path fill="none" stroke="#FFFFFF" stroke-width="2" stroke-linecap="round" stroke-linejoin="round" stroke-miterlimit="10" d="
		M84.663,37.041h2.296c9.192,15.327-3.729,27.554-5.359,39.796c-1.022,7.702,2.69,13.247,2.299,20.663
		c-8.241-4.026-11.439-14.334-9.186-25.256C76.581,63.205,90.149,53.47,84.663,37.041"/>
	<path fill="none" stroke="#FFFFFF" stroke-width="2" stroke-linecap="round" stroke-linejoin="round" stroke-miterlimit="10" d="
		M53.407,23.264c2.487-0.382,4.517-0.764,6.398-0.764c2.201,0,3.892,0.408,5.848,0.764c9.661,2.966,16.002,9.816,16.071,21.429
		c0.062,10.493-7.32,17.161-9.948,24.49c-3.139,8.744-0.309,16.854-9.186,17.602c-10.974,0.926-8.716-9.895-12.244-16.837
		c-2.292-4.511-8.297-7.681-10.715-14.54C34.335,40.389,41.709,26.388,53.407,23.264 M70.243,48.52
		c0.058-4.672-8.193-6.262-6.886,2.298C66.67,53.701,70.211,51.228,70.243,48.52 M46.519,53.112c2.747,0.45,3.703-0.889,5.357-1.531
		v-3.825C47.72,43.164,41.375,50.033,46.519,53.112 M55.702,58.469c0.241-1.035,1.09-1.461,0.767-3.061
		C53.859,54.833,53.482,58.333,55.702,58.469 M62.59,57.705v-2.297h-2.295C60.156,57.078,60.922,57.843,62.59,57.705 M58.765,76.072
		c5.833-0.28,4.027-10.365,1.53-13.011h-3.061C55.074,66.869,55.385,73.752,58.765,76.072"/>
	<path fill="none" stroke="#FFFFFF" stroke-width="2" stroke-linecap="round" stroke-linejoin="round" stroke-miterlimit="10" d="
		M33.188,37.807h2.295c-2.02,9.821-1.455,16.721,3.827,24.489c3.931,5.781,10.842,9.085,8.418,21.43
		c-1.119,5.692-6.865,13.208-12.245,13.773c-0.36-4.707,2.586-7.053,3.062-10.714C40.783,69.634,22.402,55.474,33.188,37.807"/>
</g>
</svg>
