<?xml version="1.0" encoding="utf-8"?>
<!-- Generator: Adobe Illustrator 15.1.0, SVG Export Plug-In . SVG Version: 6.00 Build 0)  -->
<!DOCTYPE svg PUBLIC "-//W3C//DTD SVG 1.1 Tiny//EN" "http://www.w3.org/Graphics/SVG/1.1/DTD/svg11-tiny.dtd">
<svg version="1.1" baseProfile="tiny" id="Layer_1" xmlns="http://www.w3.org/2000/svg" xmlns:xlink="http://www.w3.org/1999/xlink"
	 x="0px" y="0px" width="120px" height="120px" viewBox="0 0 120 120" xml:space="preserve">
<g>
	<path fill="none" stroke="#FFFFFF" stroke-width="2" stroke-linecap="round" stroke-linejoin="bevel" stroke-miterlimit="10" d="
		M49.584,25.299v16.046c0,0,8.232-7.376,20.97-1.424c-0.202-6.987-0.591-13.975-0.591-13.975"/>
	
		<line fill="none" stroke="#FFFFFF" stroke-width="2" stroke-linecap="round" stroke-linejoin="bevel" stroke-miterlimit="10" x1="60.07" y1="22.5" x2="60.07" y2="66.124"/>
	<path fill="none" stroke="#FFFFFF" stroke-width="2" stroke-linecap="round" stroke-linejoin="bevel" stroke-miterlimit="10" d="
		M54.596,23.101c0,0-3.464,10.585,1.004,10.222c4.471-0.364,4.471-2.977,4.471-2.977"/>
	<path fill="none" stroke="#FFFFFF" stroke-width="2" stroke-linecap="round" stroke-linejoin="bevel" stroke-miterlimit="10" d="
		M64.002,23.486c0,0,3.445,6.767,1.194,9.921c-2.251,3.155-4.513-2.284-4.727-2.284"/>
	
		<line fill="none" stroke="#FFFFFF" stroke-width="2" stroke-linecap="round" stroke-linejoin="bevel" stroke-miterlimit="10" x1="51.754" y1="43.283" x2="68.058" y2="43.934"/>
	<path fill="none" stroke="#FFFFFF" stroke-width="2" stroke-linecap="round" stroke-linejoin="bevel" stroke-miterlimit="10" d="
		M32.639,86.511l13.97-7.896c0,0-10.473-3.535-11.559-17.555c-5.983,3.615-11.875,7.389-11.875,7.389"/>
	
		<line fill="none" stroke="#FFFFFF" stroke-width="2" stroke-linecap="round" stroke-linejoin="bevel" stroke-miterlimit="10" x1="25.042" y1="78.758" x2="63.021" y2="57.295"/>
	<path fill="none" stroke="#FFFFFF" stroke-width="2" stroke-linecap="round" stroke-linejoin="bevel" stroke-miterlimit="10" d="
		M28.259,83.23c0,0,10.919-2.193,8.405-5.906c-2.515-3.71-4.79-2.426-4.79-2.426"/>
	<path fill="none" stroke="#FFFFFF" stroke-width="2" stroke-linecap="round" stroke-linejoin="bevel" stroke-miterlimit="10" d="
		M23.968,74.85c0,0,4.193-6.326,8.048-5.921c3.853,0.41,0.231,5.055,0.336,5.239"/>
	
		<line fill="none" stroke="#FFFFFF" stroke-width="2" stroke-linecap="round" stroke-linejoin="bevel" stroke-miterlimit="10" x1="47.228" y1="75.772" x2="39.771" y2="61.26"/>
	<path fill="none" stroke="#FFFFFF" stroke-width="2" stroke-linecap="round" stroke-linejoin="bevel" stroke-miterlimit="10" d="
		M87.361,86.511l-13.97-7.896c0,0,10.473-3.535,11.557-17.555c5.985,3.613,11.877,7.389,11.877,7.389"/>
	
		<line fill="none" stroke="#FFFFFF" stroke-width="2" stroke-linecap="round" stroke-linejoin="bevel" stroke-miterlimit="10" x1="94.956" y1="78.758" x2="56.977" y2="57.295"/>
	<path fill="none" stroke="#FFFFFF" stroke-width="2" stroke-linecap="round" stroke-linejoin="bevel" stroke-miterlimit="10" d="
		M91.741,83.23c0,0-10.921-2.193-8.405-5.906c2.516-3.71,4.79-2.426,4.79-2.426"/>
	<path fill="none" stroke="#FFFFFF" stroke-width="2" stroke-linecap="round" stroke-linejoin="bevel" stroke-miterlimit="10" d="
		M96.032,74.85c0,0-4.195-6.326-8.05-5.921c-3.854,0.41-0.229,5.055-0.334,5.239"/>
	
		<line fill="none" stroke="#FFFFFF" stroke-width="2" stroke-linecap="round" stroke-linejoin="bevel" stroke-miterlimit="10" x1="72.771" y1="75.772" x2="80.228" y2="61.26"/>
	<path fill="none" stroke="#FFFFFF" stroke-width="2" stroke-linecap="round" stroke-linejoin="bevel" stroke-miterlimit="10" d="
		M76.906,42.091c0,0-2.291,7.708,8.429,10.07"/>
	<path fill="none" stroke="#FFFFFF" stroke-width="2" stroke-linecap="round" stroke-linejoin="bevel" stroke-miterlimit="10" d="
		M33.492,53.072c0,0,7.708,2.29,10.07-8.427"/>
	
		<polyline fill="none" stroke="#FFFFFF" stroke-width="2" stroke-linecap="round" stroke-linejoin="bevel" stroke-miterlimit="10" points="
		48.278,52.161 48.278,47.749 52.539,50.669 	"/>
	
		<polyline fill="none" stroke="#FFFFFF" stroke-width="2" stroke-linecap="round" stroke-linejoin="bevel" stroke-miterlimit="10" points="
		48.278,47.749 65.082,73.616 61.086,72.053 	"/>
	
		<line fill="none" stroke="#FFFFFF" stroke-width="2" stroke-linecap="round" stroke-linejoin="bevel" stroke-miterlimit="10" x1="64.318" y1="68.352" x2="65.082" y2="73.616"/>
	
		<polyline fill="none" stroke="#FFFFFF" stroke-width="2" stroke-linecap="round" stroke-linejoin="bevel" stroke-miterlimit="10" points="
		55.398,68.352 54.595,74.54 69.695,47.749 71.188,51.042 	"/>
	
		<line fill="none" stroke="#FFFFFF" stroke-width="2" stroke-linecap="round" stroke-linejoin="bevel" stroke-miterlimit="10" x1="54.596" y1="74.539" x2="58.842" y2="71.903"/>
	
		<line fill="none" stroke="#FFFFFF" stroke-width="2" stroke-linecap="round" stroke-linejoin="bevel" stroke-miterlimit="10" x1="69.695" y1="47.749" x2="65.96" y2="51.166"/>
	
		<polyline fill="none" stroke="#FFFFFF" stroke-width="2" stroke-linecap="round" stroke-linejoin="bevel" stroke-miterlimit="10" points="
		71.809,54.045 75.968,55.269 44.033,55.269 49.583,58.253 	"/>
	
		<line fill="none" stroke="#FFFFFF" stroke-width="2" stroke-linecap="round" stroke-linejoin="bevel" stroke-miterlimit="10" x1="75.968" y1="55.269" x2="71.188" y2="57.751"/>
	
		<line fill="none" stroke="#FFFFFF" stroke-width="2" stroke-linecap="round" stroke-linejoin="bevel" stroke-miterlimit="10" x1="44.032" y1="55.269" x2="48.278" y2="53.156"/>
	
		<circle fill="none" stroke="#FFFFFF" stroke-width="2" stroke-linecap="round" stroke-linejoin="bevel" stroke-miterlimit="10" cx="34.724" cy="42.749" r="4.438"/>
	
		<circle fill="none" stroke="#FFFFFF" stroke-width="2" stroke-linecap="round" stroke-linejoin="bevel" stroke-miterlimit="10" cx="89.771" cy="42.749" r="4.438"/>
	<path fill="none" stroke="#FFFFFF" stroke-width="2" stroke-linecap="round" stroke-linejoin="bevel" stroke-miterlimit="10" d="
		M67.611,84.953c0,0-7.071-6.231-15.056,1.298"/>
	
		<circle fill="none" stroke="#FFFFFF" stroke-width="2" stroke-linecap="round" stroke-linejoin="bevel" stroke-miterlimit="10" cx="60.07" cy="93.063" r="4.439"/>
</g>
</svg>
