<?xml version="1.0" encoding="utf-8"?>
<!-- Generator: Adobe Illustrator 15.1.0, SVG Export Plug-In . SVG Version: 6.00 Build 0)  -->
<!DOCTYPE svg PUBLIC "-//W3C//DTD SVG 1.1 Tiny//EN" "http://www.w3.org/Graphics/SVG/1.1/DTD/svg11-tiny.dtd">
<svg version="1.1" baseProfile="tiny" id="Layer_1" xmlns="http://www.w3.org/2000/svg" xmlns:xlink="http://www.w3.org/1999/xlink"
	 x="0px" y="0px" width="120px" height="120px" viewBox="0 0 120 120" xml:space="preserve">
<g>
	<path fill="#FFFFFF" d="M70.653,59.147c0.04-0.034,0.083-0.066,0.125-0.095c0.59-0.398,1.459-0.3,2.582,0.294
		c0.188,0.101,0.264,0.337,0.164,0.529c-0.103,0.191-0.34,0.264-0.53,0.163c-0.823-0.434-1.454-0.555-1.778-0.338
		c-0.235,0.157-0.318,0.517-0.343,0.775l-0.22-0.101V59.147z"/>
	<path fill="none" stroke="#FFFFFF" stroke-miterlimit="10" d="M70.653,59.147c0.04-0.034,0.083-0.066,0.125-0.095
		c0.59-0.398,1.459-0.3,2.582,0.294c0.188,0.101,0.264,0.337,0.164,0.529c-0.103,0.191-0.34,0.264-0.53,0.163
		c-0.823-0.434-1.454-0.555-1.778-0.338c-0.235,0.157-0.318,0.517-0.343,0.775l-0.22-0.101V59.147z"/>
	<path fill="#FFFFFF" d="M71.778,66.026c-0.271-0.482-0.526-0.949-0.748-1.398l-1.075-0.497c0.282,0.73,0.698,1.482,1.138,2.275
		c1.029,1.855,2.092,3.775,1.479,5.55c-0.201,0.58-0.599,1.027-1.147,1.291c-0.634,0.304-1.409,0.33-2.126,0.073
		c-0.729-0.261-1.346-0.769-1.786-1.469c-0.422-0.67-0.646-1.478-0.639-2.277c0.014-1.381,0.751-2.485,1.47-3.385
		c0.103-0.127,0.243-0.279,0.394-0.439c0.445-0.48,0.97-1.043,1.156-1.648l-0.722-0.334c-0.083,0.453-0.607,1.019-1.008,1.447
		c-0.16,0.173-0.312,0.335-0.431,0.485c-0.518,0.646-0.881,1.206-1.143,1.763c-0.329,0.701-0.492,1.389-0.5,2.103
		c-0.009,0.948,0.261,1.907,0.759,2.701c0.533,0.852,1.288,1.471,2.185,1.791c0.411,0.146,0.839,0.22,1.26,0.22
		c0.514,0,1.018-0.109,1.469-0.325c0.742-0.354,1.277-0.957,1.549-1.739C74.039,70.107,72.837,67.94,71.778,66.026"/>
	<path fill="none" stroke="#FFFFFF" stroke-miterlimit="10" d="M71.778,66.026c-0.271-0.482-0.526-0.949-0.748-1.398l-1.075-0.497
		c0.282,0.73,0.698,1.482,1.138,2.275c1.029,1.855,2.092,3.775,1.479,5.55c-0.201,0.58-0.599,1.027-1.147,1.291
		c-0.634,0.304-1.409,0.33-2.126,0.073c-0.729-0.261-1.346-0.769-1.786-1.469c-0.422-0.67-0.646-1.478-0.639-2.277
		c0.014-1.381,0.751-2.485,1.47-3.385c0.103-0.127,0.243-0.279,0.394-0.439c0.445-0.48,0.97-1.043,1.156-1.648l-0.722-0.334
		c-0.083,0.453-0.607,1.019-1.008,1.447c-0.16,0.173-0.312,0.335-0.431,0.485c-0.518,0.646-0.881,1.206-1.143,1.763
		c-0.329,0.701-0.492,1.389-0.5,2.103c-0.009,0.948,0.261,1.907,0.759,2.701c0.533,0.852,1.288,1.471,2.185,1.791
		c0.411,0.146,0.839,0.22,1.26,0.22c0.514,0,1.018-0.109,1.469-0.325c0.742-0.354,1.277-0.957,1.549-1.739
		C74.039,70.107,72.837,67.94,71.778,66.026z"/>
	<path fill="#FFFFFF" d="M71.683,63.945l-2.597-1.201c-0.195-0.091-0.429-0.004-0.519,0.191c-0.091,0.195-0.006,0.429,0.191,0.521
		l0.62,0.285l0.723,0.335l0.063,0.028l1.075,0.498l0.116,0.053c0.052,0.024,0.107,0.035,0.163,0.035
		c0.147,0,0.288-0.084,0.354-0.227C71.965,64.268,71.879,64.034,71.683,63.945"/>
	<path fill="none" stroke="#FFFFFF" stroke-miterlimit="10" d="M71.683,63.945l-2.597-1.201c-0.195-0.091-0.429-0.004-0.519,0.191
		c-0.091,0.195-0.006,0.429,0.191,0.521l0.62,0.285l0.723,0.335l0.063,0.028l1.075,0.498l0.116,0.053
		c0.052,0.024,0.107,0.035,0.163,0.035c0.147,0,0.288-0.084,0.354-0.227C71.965,64.268,71.879,64.034,71.683,63.945z"/>
	<path fill="#FFFFFF" d="M71.519,63.703c-0.055,0-0.111-0.011-0.163-0.036l-2.597-1.201c-0.197-0.09-0.282-0.322-0.191-0.519
		s0.323-0.281,0.52-0.191l2.596,1.2c0.196,0.091,0.282,0.324,0.19,0.52C71.807,63.619,71.666,63.703,71.519,63.703"/>
	<path fill="none" stroke="#FFFFFF" stroke-miterlimit="10" d="M71.519,63.703c-0.055,0-0.111-0.011-0.163-0.036l-2.597-1.201
		c-0.197-0.09-0.282-0.322-0.191-0.519s0.323-0.281,0.52-0.191l2.596,1.2c0.196,0.091,0.282,0.324,0.19,0.52
		C71.807,63.619,71.666,63.703,71.519,63.703z"/>
	<path fill="#FFFFFF" d="M71.519,62.716c-0.055,0-0.111-0.012-0.163-0.037l-2.597-1.2c-0.197-0.09-0.282-0.322-0.191-0.519
		s0.323-0.281,0.52-0.191l2.596,1.2c0.196,0.09,0.282,0.323,0.19,0.518C71.807,62.631,71.666,62.716,71.519,62.716"/>
	<path fill="none" stroke="#FFFFFF" stroke-miterlimit="10" d="M71.519,62.716c-0.055,0-0.111-0.012-0.163-0.037l-2.597-1.2
		c-0.197-0.09-0.282-0.322-0.191-0.519s0.323-0.281,0.52-0.191l2.596,1.2c0.196,0.09,0.282,0.323,0.19,0.518
		C71.807,62.631,71.666,62.716,71.519,62.716z"/>
	<polygon fill="#FFFFFF" points="69.747,50.998 69.747,59.947 70.528,60.309 70.528,50.998 	"/>
	<polygon fill="none" stroke="#FFFFFF" stroke-miterlimit="10" points="69.747,50.998 69.747,59.947 70.528,60.309 70.528,50.998 	
		"/>
	<path fill="#FFFFFF" d="M71.683,60.98l-0.944-0.437l-0.783-0.361l-0.869-0.401c-0.195-0.092-0.429-0.005-0.519,0.19
		c-0.091,0.196-0.006,0.429,0.191,0.52l2.597,1.199c0.051,0.024,0.107,0.036,0.163,0.036c0.147,0,0.288-0.084,0.354-0.226
		C71.965,61.304,71.879,61.072,71.683,60.98"/>
	<path fill="none" stroke="#FFFFFF" stroke-miterlimit="10" d="M71.683,60.98l-0.944-0.437l-0.783-0.361l-0.869-0.401
		c-0.195-0.092-0.429-0.005-0.519,0.19c-0.091,0.196-0.006,0.429,0.191,0.52l2.597,1.199c0.051,0.024,0.107,0.036,0.163,0.036
		c0.147,0,0.288-0.084,0.354-0.226C71.965,61.304,71.879,61.072,71.683,60.98z"/>
	<path fill="none" stroke="#FFFFFF" stroke-width="2" stroke-linecap="round" stroke-linejoin="bevel" stroke-miterlimit="10" d="
		M31.89,97.477c2.538,0.322,3.787-2.86,6.104-2.677c1.923,0.151,1.943,2.191,3.826,1.439c1.16-0.464,0.816-1.683,2.216-1.878
		c0.011-0.001,1.662,0.585,1.918,0.68c1.84,0.666,5.554,2.39,6.589-0.466c2.764,1.029,5.387,1.715,8.461,2.185
		c3.323,0.512,2.927-1.497,5.983-1.229c4.391,0.386,8.296,1.031,12.188,1.945"/>
	
		<polyline fill="none" stroke="#FFFFFF" stroke-width="2" stroke-linecap="round" stroke-linejoin="bevel" stroke-miterlimit="10" points="
		44.232,95.796 47.642,90.682 49.346,60.853 44.232,56.591 31.449,57.443 	"/>
	
		<polyline fill="none" stroke="#FFFFFF" stroke-width="2" stroke-linecap="round" stroke-linejoin="bevel" stroke-miterlimit="10" points="
		44.232,56.591 38.267,50.625 37.416,42.954 	"/>
	
		<line fill="none" stroke="#FFFFFF" stroke-width="2" stroke-linecap="round" stroke-linejoin="bevel" stroke-miterlimit="10" x1="38.267" y1="50.625" x2="28.892" y2="46.363"/>
	
		<line fill="none" stroke="#FFFFFF" stroke-width="2" stroke-linecap="round" stroke-linejoin="bevel" stroke-miterlimit="10" x1="53.607" y1="56.591" x2="39.12" y2="49.773"/>
	
		<polyline fill="none" stroke="#FFFFFF" stroke-width="2" stroke-linecap="round" stroke-linejoin="bevel" stroke-miterlimit="10" points="
		54.46,55.738 52.756,45.511 46.79,42.103 39.972,33.579 34.857,32.728 	"/>
	
		<polyline fill="none" stroke="#FFFFFF" stroke-width="2" stroke-linecap="round" stroke-linejoin="bevel" stroke-miterlimit="10" points="
		59.574,51.478 53.607,43.807 47.641,42.103 47.641,34.432 51.903,30.169 50.199,25.91 	"/>
	
		<polyline fill="none" stroke="#FFFFFF" stroke-width="2" stroke-linecap="round" stroke-linejoin="bevel" stroke-miterlimit="10" points="
		64.688,95.796 57.017,90.682 54.459,62.557 71.506,49.773 83.438,48.92 90.256,52.329 	"/>
	
		<polyline fill="none" stroke="#FFFFFF" stroke-width="2" stroke-linecap="round" stroke-linejoin="bevel" stroke-miterlimit="10" points="
		83.438,48.92 88.552,44.659 91.108,41.25 	"/>
	
		<line fill="none" stroke="#FFFFFF" stroke-width="2" stroke-linecap="round" stroke-linejoin="bevel" stroke-miterlimit="10" x1="58.722" y1="53.182" x2="71.506" y2="49.772"/>
	
		<polyline fill="none" stroke="#FFFFFF" stroke-width="2" stroke-linecap="round" stroke-linejoin="bevel" stroke-miterlimit="10" points="
		70.653,48.92 68.949,42.954 74.063,36.136 73.21,31.875 	"/>
	
		<line fill="none" stroke="#FFFFFF" stroke-width="2" stroke-linecap="round" stroke-linejoin="bevel" stroke-miterlimit="10" x1="88.552" y1="44.659" x2="85.994" y2="37.841"/>
	
		<polyline fill="none" stroke="#FFFFFF" stroke-width="2" stroke-linecap="round" stroke-linejoin="bevel" stroke-miterlimit="10" points="
		65.54,49.772 62.131,40.397 64.687,35.285 59.574,28.465 65.54,22.5 	"/>
	
		<polyline fill="none" stroke="#FFFFFF" stroke-width="2" stroke-linecap="round" stroke-linejoin="bevel" stroke-miterlimit="10" points="
		62.131,40.397 57.869,37.84 53.608,37.84 	"/>
	
		<line fill="none" stroke="#FFFFFF" stroke-width="2" stroke-linecap="round" stroke-linejoin="bevel" stroke-miterlimit="10" x1="57.869" y1="37.841" x2="57.869" y2="34.432"/>
	
		<line fill="none" stroke="#FFFFFF" stroke-width="2" stroke-linecap="round" stroke-linejoin="bevel" stroke-miterlimit="10" x1="62.131" y1="25.909" x2="68.949" y2="25.056"/>
	
		<line fill="none" stroke="#FFFFFF" stroke-width="2" stroke-linecap="round" stroke-linejoin="bevel" stroke-miterlimit="10" x1="74.063" y1="36.136" x2="80.028" y2="33.579"/>
</g>
</svg>
