<?xml version="1.0" encoding="utf-8"?>
<!-- Generator: Adobe Illustrator 16.0.3, SVG Export Plug-In . SVG Version: 6.00 Build 0)  -->
<!DOCTYPE svg PUBLIC "-//W3C//DTD SVG 1.1//EN" "http://www.w3.org/Graphics/SVG/1.1/DTD/svg11.dtd">
<svg version="1.1" id="Layer_1" xmlns="http://www.w3.org/2000/svg" xmlns:xlink="http://www.w3.org/1999/xlink" x="0px" y="0px"
	 width="5.32px" height="9px" viewBox="0 0 5.32 9" enable-background="new 0 0 5.32 9" xml:space="preserve">
<path fill="#A02721" d="M4.795,3.152C4.705,2.985,3.911,1.54,3.318,0.459c-0.336-0.612-0.98-0.612-1.316,0
	C1.409,1.54,0.616,2.984,0.525,3.152C0.152,3.737-0.021,4.477,0.004,5.209C0.003,5.251,0,5.291,0,5.333C0,7.359,1.191,9,2.66,9
	c1.47,0,2.66-1.641,2.66-3.667c0-0.042-0.004-0.082-0.004-0.124C5.341,4.477,5.167,3.738,4.795,3.152"/>
</svg>
