<?xml version="1.0" encoding="utf-8"?>
<!-- Generator: Adobe Illustrator 16.0.3, SVG Export Plug-In . SVG Version: 6.00 Build 0)  -->
<!DOCTYPE svg PUBLIC "-//W3C//DTD SVG 1.1//EN" "http://www.w3.org/Graphics/SVG/1.1/DTD/svg11.dtd">
<svg version="1.1" id="Layer_1" xmlns="http://www.w3.org/2000/svg" xmlns:xlink="http://www.w3.org/1999/xlink" x="0px" y="0px"
	 width="54.982px" height="54.979px" viewBox="0 0 54.982 54.979" enable-background="new 0 0 54.982 54.979" xml:space="preserve">
<g id="g3247">
	<rect id="rect3249" fill="#EB7A25" width="54.982" height="54.979"/>
	<g id="g3251">
		<path id="path3253" fill="#FFFFFF" d="M17.764,19.942h-4.479v-0.461
			c0-0.805,0.257-1.4,0.766-1.785c0.706-0.516,1.979-0.771,3.818-0.771v-2.938c-5.052,0-7.575,1.834-7.575,5.497v15.551h2.991
			V22.879h2.39c0.357-0.875,0.851-1.668,1.479-2.355C17.344,20.315,17.548,20.12,17.764,19.942L17.764,19.942z"/>
		<path id="path3255" fill="#FFFFFF" d="M30.905,27.506c0,5.021-2.354,7.525-7.062,7.525H19.77
			v5.955h-2.962V27.509c0-5.045,2.345-7.566,7.036-7.566C28.55,19.942,30.905,22.465,30.905,27.506L30.905,27.506z M27.943,27.506
			c0-1.545-0.256-2.656-0.771-3.352c-0.646-0.854-1.755-1.283-3.325-1.283c-1.577,0-2.685,0.436-3.313,1.283
			c-0.513,0.689-0.768,1.807-0.768,3.352v4.598h4.068c1.576,0,2.688-0.416,3.331-1.256C27.688,30.145,27.943,29.03,27.943,27.506
			L27.943,27.506z"/>
		<path id="path3257" fill="#FFFFFF" d="M44.69,24.444h-2.958c0-0.459-0.133-0.789-0.4-0.998
			c-0.455-0.383-1.369-0.564-2.729-0.564c-1.367,0-2.281,0.188-2.736,0.568c-0.265,0.211-0.396,0.548-0.396,1.009
			c0,0.571,0.188,0.959,0.555,1.146c0.372,0.193,1.269,0.336,2.688,0.432c1.729,0.115,3.017,0.369,3.851,0.771
			c1.422,0.717,2.133,1.967,2.133,3.748c0,3.008-2.03,4.514-6.091,4.514c-4.064,0-6.103-1.508-6.103-4.524h2.967
			c0,0.466,0.135,0.806,0.396,1.019c0.455,0.385,1.369,0.578,2.736,0.578c1.357,0,2.271-0.189,2.729-0.574
			c0.271-0.209,0.4-0.545,0.4-1.006c0-0.557-0.171-0.928-0.521-1.119c-0.396-0.211-1.302-0.365-2.698-0.461
			c-1.749-0.115-3.029-0.369-3.852-0.771c-1.438-0.696-2.165-1.946-2.165-3.747c0-3.012,2.032-4.518,6.103-4.518
			C42.659,19.942,44.69,21.444,44.69,24.444z"/>
	</g>
</g>
</svg>
