<?xml version="1.0" encoding="utf-8"?>
<!-- Generator: Adobe Illustrator 16.0.3, SVG Export Plug-In . SVG Version: 6.00 Build 0)  -->
<!DOCTYPE svg PUBLIC "-//W3C//DTD SVG 1.1//EN" "http://www.w3.org/Graphics/SVG/1.1/DTD/svg11.dtd">
<svg version="1.1" id="Layer_1" xmlns="http://www.w3.org/2000/svg" xmlns:xlink="http://www.w3.org/1999/xlink" x="0px" y="0px"
	 width="117.387px" height="31.291px" viewBox="0 0 117.387 31.291" enable-background="new 0 0 117.387 31.291"
	 xml:space="preserve">
<g>
	<path fill="none" d="M31.668,12.517c-3.024,0-5.125,1.358-6.301,4.073c-0.42,0.98-0.63,2.163-0.63,3.549
		c0,1.387,0.21,2.569,0.63,3.55s0.959,1.771,1.617,2.373c0.658,0.602,1.4,1.043,2.227,1.322c0.826,0.281,1.638,0.42,2.436,0.42
		s1.609-0.139,2.436-0.42c0.826-0.279,1.575-0.714,2.248-1.301c1.512-1.372,2.268-3.361,2.268-5.964c0-2.521-0.756-4.48-2.268-5.88
		C35.069,13.091,33.516,12.517,31.668,12.517z"/>
	<path fill="none" d="M79.629,12.517c-3.023,0-5.123,1.358-6.299,4.073c-0.42,0.98-0.631,2.163-0.631,3.549
		c0,1.387,0.211,2.569,0.631,3.55s0.959,1.771,1.617,2.373c0.658,0.602,1.4,1.043,2.227,1.322c0.824,0.281,1.637,0.42,2.436,0.42
		c0.797,0,1.609-0.139,2.436-0.42c0.826-0.279,1.574-0.714,2.246-1.301c1.514-1.372,2.27-3.361,2.27-5.964
		c0-2.521-0.756-4.48-2.27-5.88C83.032,13.091,81.479,12.517,79.629,12.517z"/>
	<path fill="#FFFFFF" d="M14.826,9.681c-0.925-0.434-2.107-0.65-3.55-0.65S8.315,9.493,6.72,10.416
		c-0.812,0.477-1.778,1.302-2.897,2.479V1.932c0-0.56-0.189-1.021-0.568-1.386C2.877,0.183,2.422,0,1.89,0S0.91,0.183,0.545,0.546
		C0.182,0.911,0,1.372,0,1.932v22.657c1.155-0.617,2.649-0.621,3.822-0.017V16.59c2.127-2.687,4.424-4.031,6.887-4.031
		c1.652,0,2.836,0.455,3.55,1.364c0.714,0.91,1.071,2.163,1.071,3.759V29.19c0,0.532,0.182,0.98,0.545,1.344
		c0.365,0.363,0.813,0.545,1.345,0.545s0.987-0.183,1.364-0.545c0.379-0.364,0.567-0.812,0.567-1.344V17.262
		c0-2.323-0.657-4.256-1.974-5.796C16.533,10.71,15.75,10.116,14.826,9.681z"/>
	<path fill="#FFFFFF" d="M31.668,9.031c-3.276,0-5.881,1.022-7.813,3.065c-1.96,2.045-2.939,4.733-2.939,8.065
		s0.979,6.02,2.939,8.063c1.271,1.345,2.838,2.238,4.69,2.698c1.269-2.426,5.202-2.49,6.946-0.21
		c1.536-0.501,2.87-1.322,3.987-2.488c1.96-2.071,2.941-4.76,2.941-8.063c0-3.304-0.981-5.992-2.941-8.065
		C37.52,10.053,34.916,9.031,31.668,9.031z M36.33,26.083c-0.673,0.587-1.422,1.021-2.248,1.301c-0.826,0.281-1.638,0.42-2.436,0.42
		s-1.609-0.139-2.436-0.42c-0.826-0.279-1.568-0.72-2.227-1.322c-0.658-0.603-1.197-1.393-1.617-2.373s-0.63-2.163-0.63-3.55
		c0-1.386,0.21-2.568,0.63-3.549c1.176-2.715,3.276-4.073,6.301-4.073c1.848,0,3.401,0.574,4.662,1.722
		c1.512,1.4,2.268,3.359,2.268,5.88C38.598,22.722,37.842,24.711,36.33,26.083z"/>
	<path fill="#FFFFFF" d="M55.02,9.03h-0.211c-2.436,0-4.635,1.316-6.594,3.948v-1.807c0-0.531-0.189-0.986-0.566-1.365
		c-0.379-0.378-0.834-0.566-1.365-0.566c-0.533,0-0.982,0.188-1.344,0.566c-0.365,0.379-0.547,0.834-0.547,1.365V25.74
		c1.172-0.603,2.666-0.598,3.822,0.021v-9.339c0.729-1.091,1.645-1.98,2.75-2.667c1.105-0.686,2.359-1.028,3.76-1.028h0.211
		c0.559,0,1.021-0.161,1.385-0.483s0.547-0.756,0.547-1.302s-0.176-1.001-0.525-1.365C55.991,9.213,55.549,9.03,55.02,9.03z"/>
	<path fill="#FFFFFF" d="M69.76,10.941c0-0.546-0.174-1.001-0.523-1.365c-0.352-0.364-0.793-0.546-1.324-0.546h-0.209
		c-2.438,0-4.635,1.316-6.594,3.948v-1.807c0-0.531-0.189-0.986-0.568-1.365c-0.377-0.378-0.832-0.566-1.365-0.566
		c-0.531,0-0.98,0.188-1.344,0.566c-0.363,0.379-0.545,0.834-0.545,1.365V29.19c0,0.532,0.182,0.98,0.545,1.344
		c0.363,0.363,0.813,0.546,1.344,0.546c0.533,0,0.988-0.183,1.365-0.546c0.379-0.364,0.568-0.812,0.568-1.344V16.422
		c0.727-1.091,1.645-1.98,2.75-2.667c1.105-0.686,2.357-1.028,3.76-1.028h0.209c0.561,0,1.021-0.161,1.387-0.483
		C69.579,11.922,69.76,11.487,69.76,10.941z"/>
	<path fill="#FFFFFF" d="M79.629,9.031c-3.275,0-5.879,1.022-7.811,3.065c-1.961,2.045-2.941,4.733-2.941,8.065
		s0.98,6.02,2.941,8.063c0.893,0.945,1.936,1.662,3.115,2.17c1.363-0.417,2.994-0.124,4.09,0.873
		c0.201,0.008,0.398,0.024,0.605,0.024c3.248,0,5.854-1.022,7.813-3.067c1.961-2.071,2.941-4.76,2.941-8.063
		c0-3.304-0.98-5.992-2.941-8.065C85.483,10.053,82.877,9.031,79.629,9.031z M84.292,26.083c-0.672,0.587-1.42,1.021-2.246,1.301
		c-0.826,0.281-1.639,0.42-2.436,0.42c-0.799,0-1.611-0.139-2.436-0.42c-0.826-0.279-1.568-0.72-2.227-1.322
		c-0.658-0.603-1.197-1.393-1.617-2.373s-0.631-2.163-0.631-3.55c0-1.386,0.211-2.568,0.631-3.549
		c1.176-2.715,3.275-4.073,6.299-4.073c1.85,0,3.402,0.574,4.662,1.722c1.514,1.4,2.27,3.359,2.27,5.88
		C86.561,22.722,85.805,24.711,84.292,26.083z"/>
	<path fill="#FFFFFF" d="M104.831,10.941c0-0.546-0.176-1.001-0.527-1.365c-0.35-0.364-0.791-0.546-1.322-0.546h-0.211
		c-2.434,0-4.633,1.316-6.592,3.948v-1.807c0-0.531-0.189-0.986-0.566-1.365c-0.379-0.378-0.834-0.566-1.365-0.566
		c-0.533,0-0.982,0.188-1.344,0.566c-0.365,0.379-0.547,0.834-0.547,1.365v14.179c1.16-0.64,2.652-0.658,3.822-0.077v-8.852
		c0.729-1.091,1.645-1.98,2.75-2.667c1.105-0.686,2.359-1.028,3.758-1.028h0.211c0.561,0,1.023-0.161,1.387-0.483
		S104.831,11.487,104.831,10.941z"/>
	<path fill="#FFFFFF" d="M109.407,24.359V1.932c0-0.56-0.182-1.022-0.545-1.386C108.497,0.183,108.042,0,107.497,0
		c-0.547,0-1.002,0.183-1.365,0.546c-0.363,0.364-0.545,0.826-0.545,1.386v22.344C106.749,23.698,108.243,23.719,109.407,24.359z"/>
	<path fill="#FFFFFF" d="M116.756,1.26c-0.42-0.42-0.924-0.63-1.512-0.63h-0.252c-0.588,0-1.092,0.21-1.512,0.63
		s-0.631,0.924-0.631,1.512V2.94c0,0.588,0.211,1.092,0.631,1.512s0.924,0.63,1.512,0.63h0.252c0.588,0,1.092-0.21,1.512-0.63
		s0.631-0.924,0.631-1.512V2.772C117.387,2.185,117.176,1.68,116.756,1.26z"/>
	<path fill="#FFFFFF" d="M115.098,9.24c-0.547,0-1.002,0.183-1.365,0.546c-0.363,0.364-0.545,0.826-0.545,1.386V29.19
		c0,0.533,0.182,0.98,0.545,1.344s0.818,0.546,1.365,0.546s1-0.183,1.365-0.546c0.363-0.363,0.545-0.811,0.545-1.344V11.172
		c0-0.56-0.182-1.022-0.545-1.386C116.098,9.423,115.645,9.24,115.098,9.24z"/>
</g>
</svg>
